<!DOCTYPE svg PUBLIC "-//W3C//DTD SVG 1.1//EN" "http://www.w3.org/Graphics/SVG/1.1/DTD/svg11.dtd">
<!-- Uploaded to: SVG Repo, www.svgrepo.com, Transformed by: SVG Repo Mixer Tools -->
<svg fill="#000000" width="800px" height="800px" viewBox="0 0 24 24" id="avocado" data-name="Flat Color" xmlns="http://www.w3.org/2000/svg" class="icon flat-color">
<g id="SVGRepo_bgCarrier" stroke-width="0"/>
<g id="SVGRepo_tracerCarrier" stroke-linecap="round" stroke-linejoin="round"/>
<g id="SVGRepo_iconCarrier">
<path id="secondary" d="M12,7a1,1,0,0,1-1-1,5.93,5.93,0,0,1,1.21-3.62,1,1,0,1,1,1.58,1.24A4,4,0,0,0,13,6,1,1,0,0,1,12,7Z" style="fill: #03b300;"/>
<path id="primary" d="M17,12.18a7.71,7.71,0,0,1-.83-2.78,4.6,4.6,0,0,0-2-3.74,4.13,4.13,0,0,0-4.42,0,4.64,4.64,0,0,0-2,3.76A7.72,7.72,0,0,1,7,12.18c-.16.35-.3.68-.43,1A8.61,8.61,0,0,0,6,16.56,5.75,5.75,0,0,0,12,22a5.75,5.75,0,0,0,6-5.44A8.86,8.86,0,0,0,17,12.18Z" style="fill: #03b300;"/>
</g>
</svg>